<svg id="Layer_2" data-name="Layer 2" xmlns="http://www.w3.org/2000/svg" xmlns:xlink="http://www.w3.org/1999/xlink" viewBox="0 0 255.5 162"><defs><style>.cls-1{fill:url(#linear-gradient);}.cls-2{fill:#ccc;}.cls-3{fill:url(#linear-gradient-2);}.cls-4{fill:url(#linear-gradient-3);}.cls-5{fill:url(#linear-gradient-4);}.cls-6{fill:#fff;}.cls-7{fill:url(#linear-gradient-5);}.cls-8{fill:url(#linear-gradient-6);}.cls-9{fill:url(#linear-gradient-7);}</style><linearGradient id="linear-gradient" x1="175.27" y1="846.63" x2="-42.14" y2="985.69" gradientTransform="translate(-0.04 -796)" gradientUnits="userSpaceOnUse"><stop offset="0.05" stop-color="#304cb2"/><stop offset="0.2" stop-color="#2e49ab"/><stop offset="0.4" stop-color="#294199"/><stop offset="0.64" stop-color="#21347b"/><stop offset="0.9" stop-color="#162251"/><stop offset="1" stop-color="#111b40"/></linearGradient><linearGradient id="linear-gradient-2" x1="-1.3" y1="60.05" x2="178.47" y2="185.93" gradientUnits="userSpaceOnUse"><stop offset="0.3" stop-color="#e61c23"/><stop offset="0.8" stop-color="#c3161c"/></linearGradient><linearGradient id="linear-gradient-3" x1="676.86" y1="1171.02" x2="783.42" y2="1245.63" gradientTransform="translate(-568.4 -1129.01)" gradientUnits="userSpaceOnUse"><stop offset="0" stop-color="#fdbc11"/><stop offset="0.25" stop-color="#fcb415"/><stop offset="0.8" stop-color="#f89e1c"/></linearGradient><linearGradient id="linear-gradient-4" y1="144.76" x2="42.7" y2="144.76" gradientUnits="userSpaceOnUse"><stop offset="0" stop-color="#3656cc"/><stop offset="0.35" stop-color="#304cb2"/><stop offset="0.72" stop-color="#283b80"/></linearGradient><linearGradient id="linear-gradient-5" x1="806.39" y1="1152.72" x2="811.29" y2="1152.72" gradientTransform="translate(-568.4 -1129.01)" xlink:href="#linear-gradient-4"/><linearGradient id="linear-gradient-6" x1="807.09" y1="1148.85" x2="812.63" y2="1152.73" gradientTransform="translate(-568.4 -1129.01)" xlink:href="#linear-gradient-2"/><linearGradient id="linear-gradient-7" x1="810.52" y1="1148.37" x2="813.68" y2="1150.58" xlink:href="#linear-gradient-3"/></defs><g id="southwest_gift_card" data-name="southwest gift card"><rect class="cls-1" width="255.5" height="162" rx="9.4"/><g id="heart"><path class="cls-2" d="M140.39,43c-21.65,0-39.09,7.57-53,15.49C73.39,50.57,56,43,34.39,43,21.5,43,9.92,45.53,0,50.33V152.6A9.4,9.4,0,0,0,9.4,162H203c6-14,9.27-28.15,9.27-42.41C212.26,71.3,183.68,43,140.39,43Z"/><path class="cls-3" d="M34.94,49.89C21.64,49.89,9.8,52.7,0,58.19v58.72C16.79,129,38,144.41,61.62,162H195.23a121.9,121.9,0,0,0,5.16-13.4c-52.12-43-83.67-64.86-117.5-85.16C73.76,57.93,55.47,49.89,34.94,49.89Z"/><path class="cls-4" d="M187.2,68C176,56.3,159.58,50,140.68,50,120.4,50,105,56.55,94.18,62.4a1065.76,1065.76,0,0,1,109.63,70.23A87.7,87.7,0,0,0,204.9,119C204.9,97.74,198.68,80,187.2,68Z"/><path class="cls-5" d="M0,127.52V152.6A9.4,9.4,0,0,0,9.4,162H42.7C26.62,148.93,12.14,137.26,0,127.52Z"/></g><g id="logo"><g id="southwest"><path class="cls-6" d="M150,26.44a10.39,10.39,0,0,1-4-.8l.6-2.8a9.38,9.38,0,0,0,3.46.78c1.3,0,2.14-.48,2.14-1.36s-.7-1-2.62-1.62c-2.74-.8-3.4-2.24-3.4-4,0-2.7,2-4.28,5.36-4.28A8.92,8.92,0,0,1,155,13l-.68,2.74a6.77,6.77,0,0,0-2.7-.56c-1.52,0-2.16.62-2.16,1.36s.44,1,2.38,1.62c2.76.8,3.64,2,3.64,3.94C155.47,24.34,153.62,26.44,150,26.44Z"/><path class="cls-6" d="M161.28,26.44a5.23,5.23,0,1,1,5.19-5.27v0h0a4.92,4.92,0,0,1-4.58,5.24h-.61Zm0-7.74a2.19,2.19,0,0,0-2.22,2.16h0a1.93,1.93,0,0,0,0,.34c0,1.72,1,2.52,2.2,2.52s2.2-.8,2.2-2.52a2.19,2.19,0,0,0-1.86-2.48h-.34Z"/><path class="cls-6" d="M177.11,25.82a17.59,17.59,0,0,1-4.08.62c-3.84,0-5.2-1.6-5.2-4.32V16.26h3v5.42c0,1.48.64,2,2.1,2a6.92,6.92,0,0,0,1.2-.16v-7.3h3Z"/><path class="cls-6" d="M184.7,26.08a5.5,5.5,0,0,1-2.12.36c-2.22,0-3.26-1.16-3.26-3.32v-4.4H178V16.26h1.3V13.74h3v2.52h2v2.46h-2v3.7c0,.88.32,1.28,1.12,1.28a5,5,0,0,0,.94-.14Z"/><path class="cls-6" d="M195,19.86v6.3h-3V20.58c0-1.38-.52-1.86-1.56-1.86a3.58,3.58,0,0,0-1.74.5v6.94h-3V12.06h3v4.4a6,6,0,0,1,2.41-.47,3.56,3.56,0,0,1,3.89,3.2h0A3.75,3.75,0,0,1,195,19.86Z"/><path class="cls-6" d="M203.64,20.42a3.16,3.16,0,0,1-.14-.68h0a2.48,2.48,0,0,1-.12.66l-1.64,5.76h-3.27l-2.64-9.9h3l1.22,5.62a6.77,6.77,0,0,1,.2,1.18h0a5.47,5.47,0,0,1,.26-1.2l1.58-5.6h2.8l1.58,5.6a6.92,6.92,0,0,1,.26,1.18h0a5.13,5.13,0,0,1,.2-1.16l1.26-5.62h3l-2.72,9.9h-3.34Z"/><path class="cls-6" d="M220.76,22.24h-6.38c.24,1,1,1.6,2.5,1.6a7.68,7.68,0,0,0,2.59-.54l.84,2.42a10.4,10.4,0,0,1-3.74.72c-3.36,0-5.34-2-5.34-5.3A4.81,4.81,0,0,1,215.67,16h.59c2.82,0,4.62,1.92,4.62,4.94A9.38,9.38,0,0,1,220.76,22.24Zm-2.9-2.16a1.64,1.64,0,0,0-1.56-1.72h-.16a1.84,1.84,0,0,0-1.84,1.72Z"/><path class="cls-6" d="M224.76,26.44a8.41,8.41,0,0,1-3.14-.54l.32-2.52a7.91,7.91,0,0,0,2.68.5c1,0,1.36-.22,1.36-.66s-.64-.6-1.88-1c-2-.6-2.64-1.76-2.64-3.1,0-1.94,1.52-3.18,4.26-3.18a7.68,7.68,0,0,1,2.56.38l-.42,2.46a7.07,7.07,0,0,0-1.94-.3c-1.08,0-1.56.22-1.56.64s.34.6,1.84,1c1.74.44,2.68,1.3,2.68,3C228.88,25,227.64,26.44,224.76,26.44Z"/><path class="cls-6" d="M235.6,26.08a5.5,5.5,0,0,1-2.12.36c-2.22,0-3.26-1.16-3.26-3.32v-4.4h-1.3V16.26h1.3V13.74h3v2.52h2v2.46h-2v3.7c0,.88.32,1.28,1.12,1.28a5,5,0,0,0,.94-.14Z"/><path class="cls-6" d="M237.88,13.46a1.25,1.25,0,0,1-1.21,1.29h0a1.29,1.29,0,1,1,0-2.58,1.25,1.25,0,0,1,1.25,1.25Zm-2.24,0a1,1,0,1,0,0-.05Zm1.52-.3a.47.47,0,0,1-.26.42l.36.57h-.33l-.32-.51h-.14v.51h-.28V12.78a1.32,1.32,0,0,1,.44-.08c.39,0,.56.18.56.46Zm-.69-.16v.4h.13c.19,0,.28-.08.28-.22s-.09-.2-.23-.2Z"/></g><g id="airlines"><path class="cls-6" d="M207.47,37.74h-3.25L203.36,40h-1l3.11-8h.89l3,8h-1Zm-1.5-4a1.76,1.76,0,0,1-.12-.45h0a1.76,1.76,0,0,1-.12.45l-1.2,3.14h2.66Z"/><path class="cls-6" d="M209.84,32.74a.65.65,0,1,1,.66.64h0a.63.63,0,0,1-.65-.61h0Zm.18,1.63H211V40H210Z"/><path class="cls-6" d="M215.56,34.36l-.12.88a2.82,2.82,0,0,0-.65-.08,2.08,2.08,0,0,0-1.29.42V40h-.93V34.4h.62a.75.75,0,0,1,.16.35,2.61,2.61,0,0,1,1.46-.44A3.16,3.16,0,0,1,215.56,34.36Z"/><path class="cls-6" d="M216.47,31.77h.93V40h-.93Z"/><path class="cls-6" d="M218.8,32.74a.65.65,0,1,1,.66.64h0a.63.63,0,0,1-.65-.61h0Zm.19,1.63h.93V40H219Z"/><path class="cls-6" d="M226.19,36.48V40h-.93V36.73c0-1.25-.43-1.61-1.3-1.61a3,3,0,0,0-1.5.42V40h-.93V34.4h.64a.61.61,0,0,1,.14.29,4.05,4.05,0,0,1,1.81-.43C225.53,34.23,226.19,35,226.19,36.48Z"/><path class="cls-6" d="M232.47,37.43h-4.18A1.79,1.79,0,0,0,230,39.29h.22a4.44,4.44,0,0,0,1.72-.38l.28.76a5.11,5.11,0,0,1-2,.44,2.94,2.94,0,0,1-.12-5.87,2.34,2.34,0,0,1,2.44,2.23,2.29,2.29,0,0,1,0,.37A3.81,3.81,0,0,0,232.47,37.43Zm-.9-.73A1.46,1.46,0,0,0,230.41,35H230a1.72,1.72,0,0,0-1.74,1.68h3.26Z"/><path class="cls-6" d="M234.86,40.1a4.2,4.2,0,0,1-1.68-.33l.14-.83a3.74,3.74,0,0,0,1.51.34c.8,0,1.2-.27,1.2-.82s-.42-.69-1.34-1c-1.18-.39-1.48-.94-1.48-1.66,0-1,.79-1.56,2.06-1.56a3.4,3.4,0,0,1,1.44.28l-.18.78a3.26,3.26,0,0,0-1.24-.24c-.82,0-1.16.33-1.16.75s.35.69,1.25,1c1.09.37,1.56.8,1.56,1.64S236.25,40.1,234.86,40.1Z"/></g><g id="heart_logo" data-name="heart logo"><path class="cls-2" d="M243.11,19.39a3.09,3.09,0,0,0-1.57.46,3.15,3.15,0,0,0-1.58-.46,2,2,0,0,0-2.14,1.85h0a2.94,2.94,0,0,0,0,.42c0,1.75,1.67,3.47,3.71,4.84,2-1.37,3.71-3.09,3.71-4.84a2,2,0,0,0-1.7-2.26A2.06,2.06,0,0,0,243.11,19.39Z"/><path class="cls-7" d="M238,21.69c0,1.79,1.89,3.46,3.5,4.56a14.5,14.5,0,0,0,1.4-1.08c-2.14-1.79-4.14-3.39-4.86-4A2.28,2.28,0,0,0,238,21.69Z"/><path class="cls-8" d="M244.84,22.53A26.19,26.19,0,0,0,241.36,20a2.89,2.89,0,0,0-1.43-.41,1.77,1.77,0,0,0-1.82,1.4c.81.56,3,2.11,5.18,3.85A5.69,5.69,0,0,0,244.84,22.53Z"/><path class="cls-9" d="M244.47,20.13a1.87,1.87,0,0,0-1.38-.53,2.8,2.8,0,0,0-1.38.37A31.58,31.58,0,0,1,245,22.05a2.67,2.67,0,0,0,0-.4A2.11,2.11,0,0,0,244.47,20.13Z"/></g></g></g></svg>