<svg id="Layer_1" data-name="Layer 1" xmlns="http://www.w3.org/2000/svg" viewBox="0 0 49.2 49.2"><defs><style>.cls-1{fill:#ffbf27;}</style></defs><path class="cls-1" d="M39.24,37.76A19.11,19.11,0,1,1,44.14,25a19.07,19.07,0,0,1-4.9,12.76M25,.4A24.6,24.6,0,1,0,49.6,25,24.59,24.59,0,0,0,25,.4" transform="translate(-0.4 -0.4)"/><polygon class="cls-1" points="35.87 28.73 35.87 28.73 20.46 28.73 20.46 23.13 11.4 31.26 20.46 39.4 20.46 34.17 35.87 34.16 35.87 28.73"/><polygon class="cls-1" points="13.34 21.17 13.34 21.18 28.74 21.18 28.74 26.78 37.8 18.64 28.74 10.5 28.74 15.74 13.34 15.74 13.34 15.74 13.34 21.17"/></svg>