<?xml version="1.0" encoding="utf-8"?>
<!-- Generator: Adobe Illustrator 28.2.0, SVG Export Plug-In . SVG Version: 6.00 Build 0)  -->
<svg version="1.1" xmlns="http://www.w3.org/2000/svg" xmlns:xlink="http://www.w3.org/1999/xlink" x="0px" y="0px"
	viewBox="0 0 500.7 123" style="enable-background:new 0 0 500.7 123;" xml:space="preserve">
	<style type="text/css">
		.st0 {
			display: none;
		}

		.st1 {
			fill: #0E680E;
		}

		.st2 {
			fill: #4A9D2D;
		}
	</style>
	<g id="Guides" class="st0">
	</g>
	<g id="Layer_1">
		<g>
			<polygon class="st1" points="246.7,37 266.9,64.8 245.5,94.2 259.5,94.2 274,73.7 288.6,94.2 303,94.2 281.6,64.6 301.7,37 
			287.7,37 274.3,55.7 261,37 		" />
			<path class="st2" d="M54.4,0.1v74.3c0,18.7-15.2,33.9-33.9,33.9c-2.5,0-4.8-0.3-7.1-0.7c8.7,9,20.8,14.6,34.4,14.6
			c26.3,0,47.7-21.3,47.7-47.7V0.1H54.4z" />
			<path class="st1" d="M20.4,95C9.1,95,0,85.8,0,74.5V13.3h40.9v61.2C40.9,85.8,31.8,95,20.4,95z" />
			<path class="st2" d="M368.5,65.4c0,17.9-13.2,30-28.1,30c-8.6,0-15.7-3-20.6-8.1v26.9h-11.9V37h11.9v6.5c4.9-5.1,12-8.1,20.6-8.1
			C355.3,35.5,368.5,47.6,368.5,65.4z M357,65.4c0-11.9-8.1-19.4-18.5-19.4c-9.4,0-18.7,7.6-18.7,19.4s9.3,19.4,18.7,19.4
			C348.9,84.8,357,77.4,357,65.4z" />
			<path class="st2" d="M434.1,93.8h-11.9v-6.5c-4.9,5.1-12,8.1-20.6,8.1c-14.9,0-28.1-12-28.1-30s13.2-30,28.1-30
			c8.6,0,15.7,3,20.6,8.1V37h11.9V93.8z M422.2,65.4c0-11.9-9.3-19.4-18.7-19.4c-10.4,0-18.5,7.6-18.5,19.4
			c0,11.8,8.1,19.4,18.5,19.4C412.9,84.8,422.2,77.4,422.2,65.4z" />
			<path class="st1" d="M232.2,77.6c-4,6-9.7,7.5-15.3,7.5c-8.3,0-16-6.3-17.2-16.8h46v-4.1c-0.6-17-13.2-28.7-28.3-28.7
			c-16,0-29.4,12-29.4,30c0,18.1,13.5,29.8,28.9,29.8c12.6,0,22.6-5.9,27.3-17.8L232.2,77.6L232.2,77.6z M217.3,46
			c7.8,0,14.3,4.6,16.1,13.8H200C201.8,50.6,209.9,46,217.3,46z" />
			<path class="st2" d="M488.2,37v27.2c-0.1,11.4-8.9,18.2-17.5,18.2c-10.2,0-17.3-7.5-17.3-18.2V37h-11.8v27.2
			c0,16.3,12,29.1,27.3,29.1c7.7,0,14.5-2.5,19.3-7.2v0.4c0,12-8.2,18.2-16.3,18.2c-10.3,0-13.8-4.3-17.7-10.4l-0.2-0.3l-9.4,6.2
			l0.2,0.3c4.1,7.6,10.5,15.4,27.2,15.4c16.5,0,28.5-12.2,28.5-29.1V37H488.2z" />
			<path class="st1" d="M181.1,0h-11.6v93.8h11.6V0z" />
			<path class="st1" d="M142.4,23.9c0-10,5.4-13.5,12.5-13.5c3.3,0,5.7,0.5,7.7,1.3V1.6c-1.9-0.7-5-1.6-9.6-1.6
			c-12.6,0-22,7.9-22,24.2v8.9h-9.9v10.1h9.9v50.5h11.4V43.2h17.9V33.1h-17.9V23.9z" />
		</g>
	</g>
</svg>