<?xml version="1.0" encoding="UTF-8"?>
<svg width="76px" height="17px" viewBox="0 0 76 17" version="1.1" xmlns="http://www.w3.org/2000/svg" xmlns:xlink="http://www.w3.org/1999/xlink">
    <!-- Generator: Sketch 63.1 (92452) - https://sketch.com -->
    <title>PayPal</title>
    <desc>Created with Sketch.</desc>
    <g id="PayPal_First" stroke="none" stroke-width="1" fill="none" fill-rule="evenodd">
        <g id="Op2" transform="translate(-127.000000, -265.000000)" fill-rule="nonzero">
            <g id="payment_Method" transform="translate(43.000000, 20.000000)">
                <g id="Dual-button" transform="translate(66.000000, 230.000000)">
                    <g id="PayPal" transform="translate(18.000000, 15.000000)">
                        <path d="M58.1290991,3.79363817 L53.9647156,3.79363817 C53.6923595,3.78429675 53.4519612,3.97387819 53.3921128,4.24520067 L51.7159484,14.1158257 C51.7067245,14.2128125 51.7393751,14.3090861 51.8053728,14.3795022 C51.8713705,14.4499183 51.9641612,14.4874841 52.0595101,14.4823882 L54.1885512,14.4823882 C54.3773664,14.4893705 54.5439845,14.3573629 54.5841676,14.1689507 L55.0630717,11.3692632 C55.1228448,11.100878 55.3609401,10.9136194 55.630469,10.9230132 L56.9422498,10.9230132 C59.680332,10.9230132 61.2575923,9.69582567 61.6688252,7.26270067 C61.9014933,6.39686189 61.7073589,5.46963397 61.1482772,4.77645067 C60.5652635,4.13363817 59.5189621,3.79363817 58.1290991,3.79363817 Z M58.6080032,7.40082567 C58.3841676,8.78207567 57.2441676,8.78207567 56.1458115,8.78207567 L55.5159484,8.78207567 L55.9584142,6.20020067 C55.9932185,6.03894251 56.1350174,5.92539757 56.2967704,5.92926317 L56.5830717,5.92926317 C57.3326608,5.92926317 58.040606,5.92926317 58.4049895,6.32770067 C58.6399561,6.63027924 58.7157128,7.03072665 58.6080032,7.40082567 L58.6080032,7.40082567 Z" id="Shape" fill="#009EDD"></path>
                        <path d="M28.5255375,3.79363817 L24.3611539,3.79363817 C24.0900464,3.78475575 23.8513826,3.97469605 23.7937567,4.24520067 L22.1123868,14.1158257 C22.1031629,14.2128125 22.1358135,14.3090861 22.2018112,14.3795022 C22.2678088,14.4499183 22.3605995,14.4874841 22.4559484,14.4823882 L24.470469,14.4823882 C24.7393319,14.4896826 24.9762736,14.3033312 25.0378663,14.0361382 L25.490743,11.3798882 C25.5505161,11.111503 25.7886113,10.9242444 26.0581402,10.9336382 L27.3751265,10.9336382 C30.1080032,10.9336382 31.6852635,9.70645067 32.0964964,7.27332567 C32.3318902,6.4075685 32.1374851,5.47904762 31.5759484,4.78707567 C30.9617019,4.13363817 29.9154005,3.79363817 28.5255375,3.79363817 Z M29.0044416,7.40082567 C28.780606,8.78207567 27.640606,8.78207567 26.5422498,8.78207567 L25.9175923,8.78207567 L26.3548526,6.20020067 C26.3900116,6.03692103 26.5347288,5.92279505 26.6984142,5.92926317 L26.9847156,5.92926317 C27.7343046,5.92926317 28.4422498,5.92926317 28.8066334,6.32770067 C29.0398008,6.63122243 29.1135988,7.03158222 29.0044416,7.40082567 L29.0044416,7.40082567 Z" id="Shape" fill="#1C3687"></path>
                        <path d="M40.930195,7.35301317 L38.9469073,7.35301317 C38.7832219,7.34654505 38.6385048,7.46067103 38.6033457,7.62395067 L38.5148526,8.15520067 L38.3795101,7.96926317 C37.9474553,7.39020067 36.9896471,7.19895067 36.0318389,7.19895067 C33.8596404,7.16304649 31.9809517,8.73645695 31.5915649,10.9177007 C31.3852941,11.9277434 31.6594195,12.9778329 32.330743,13.7492632 C32.9967063,14.4112514 33.9070114,14.7531154 34.8345786,14.6895757 C35.8519502,14.708475 36.8376264,14.3281571 37.5882772,13.6270757 L37.4997841,14.1583257 C37.4889005,14.2547677 37.5202595,14.351198 37.5854853,14.4218612 C37.6507111,14.4925245 37.7431601,14.5302231 37.8381402,14.5248882 L39.6288252,14.5248882 C39.8996155,14.5347555 40.139453,14.3478415 40.2014279,14.0786382 L41.2737567,7.76738817 C41.2991543,7.66304049 41.2738842,7.55259364 41.2058324,7.47051532 C41.1377806,7.388437 41.0352341,7.34472218 40.930195,7.35301317 Z M38.16088,10.9442632 C37.945344,12.0181091 36.9895156,12.7672592 35.9173183,12.7027007 C35.4243934,12.7326543 34.9415202,12.551704 34.5847156,12.2033257 C34.2836347,11.8491052 34.1674587,11.3689188 34.2723868,10.9123882 C34.4844201,9.84098886 35.4304599,9.08754597 36.500332,9.13801317 C36.9918663,9.10693883 37.4735623,9.28815585 37.8277293,9.63738817 C38.136528,9.99392507 38.2602725,10.4793468 38.16088,10.9442632 L38.16088,10.9442632 Z" id="Shape" fill="#1C3687"></path>
                        <path d="M70.5337567,7.35301317 L68.5452635,7.35301317 C68.3835105,7.34914757 68.2417117,7.46269251 68.2069073,7.62395067 L68.1184142,8.15520067 L67.9778663,7.96926317 C67.5510169,7.39020067 66.5880032,7.19895067 65.630195,7.19895067 C63.4591925,7.16345299 61.5822126,8.73727733 61.1951265,10.9177007 C60.9862892,11.9278137 61.2607205,12.9790751 61.9343046,13.7492632 C62.6002679,14.4112514 63.5105731,14.7531154 64.4381402,14.6895757 C65.4555119,14.708475 66.4411881,14.3281571 67.1918389,13.6270757 L67.1033457,14.1583257 C67.0905182,14.2551899 67.1212161,14.3527883 67.186889,14.4239359 C67.2525619,14.4950834 67.3461928,14.5321783 67.4417019,14.5248882 L69.2375923,14.5248882 C69.5077987,14.5364457 69.747094,14.3482433 69.8049895,14.0786382 L70.8825238,7.76738817 C70.908316,7.66206319 70.8824479,7.5505138 70.8131333,7.46816014 C70.7438187,7.38580649 70.6396697,7.34288078 70.5337567,7.35301317 Z M67.7644416,10.9442632 C67.5468856,12.0168181 66.5923763,12.7649344 65.52088,12.7027007 C65.0277666,12.7339666 64.5443935,12.552829 64.1882772,12.2033257 C63.8848272,11.8503631 63.7683497,11.3689308 63.8759484,10.9123882 C64.0859759,9.83972474 65.0333075,9.08525302 66.1038936,9.13801317 C66.5936578,9.10845413 67.0731707,9.28956008 67.4260854,9.63738817 C67.7382746,9.99211404 67.8641904,10.4784541 67.7644416,10.9442632 L67.7644416,10.9442632 Z" id="Shape" fill="#009EDD"></path>
                        <path d="M51.5389621,7.35301317 L49.540058,7.35301317 C49.3525461,7.35175402 49.17529,7.44023787 49.0611539,7.59207567 L46.3074553,11.3533257 L45.1414279,7.73551317 C45.0554624,7.50159979 44.8343968,7.34835492 44.5896471,7.35301317 L42.6219758,7.35301317 C42.5165366,7.3458007 42.4144906,7.39259368 42.3497566,7.47783868 C42.2850226,7.56308368 42.2660841,7.67560922 42.2992361,7.77801317 L44.4959484,13.7652007 L42.4137567,16.4745757 C42.3417646,16.5757871 42.3344223,16.7106142 42.3949815,16.8193439 C42.4555407,16.9280736 42.57281,16.9906126 42.6948526,16.9792632 L44.6885512,16.9792632 C44.8729709,16.9838896 45.0486555,16.8991671 45.1622498,16.7508257 L51.8044416,7.85770067 C51.8741469,7.75883631 51.8825541,7.62807508 51.8261049,7.52076274 C51.7696556,7.4134504 51.6582193,7.34834897 51.5389621,7.35301317 L51.5389621,7.35301317 Z" id="Path" fill="#1C3687"></path>
                        <path d="M72.8814279,4.06988817 L71.1792361,14.1211382 C71.1700122,14.218125 71.2026628,14.3143986 71.2686605,14.3848147 C71.3346581,14.4552308 71.4274488,14.4927966 71.5227978,14.4877007 L73.2354005,14.4877007 C73.5049294,14.4970945 73.7430247,14.3098359 73.8027978,14.0414507 L75.4841676,4.16551317 C75.49503,4.06765978 75.4631134,3.96989037 75.3969163,3.89823785 C75.3307192,3.82658534 75.2369608,3.78832273 75.140606,3.79363817 L73.2249895,3.79363817 C73.0597045,3.78765281 72.9144017,3.90448748 72.8814279,4.06988817 L72.8814279,4.06988817 Z" id="Path" fill="#009EDD"></path>
                        <path d="M7.86498954,16.2886382 L8.42197584,13.0108257 L8.4584142,12.8302007 C8.48770401,12.6677041 8.57484627,12.5220039 8.70307173,12.4211382 C8.83851549,12.3143857 9.00567385,12.2581456 9.17677036,12.2617632 L9.61923611,12.2617632 C10.2966988,12.2680982 10.9726335,12.1950153 11.6337567,12.0439507 C12.2333643,11.9069489 12.8055589,11.6661783 13.3255375,11.3320757 C13.8343263,10.9951725 14.2686855,10.5536925 14.60088,10.0358257 C14.9767067,9.43349424 15.2397013,8.76519249 15.3764964,8.06488817 C15.5136738,7.48219511 15.5401791,6.87807393 15.4545786,6.28520067 C15.3742222,5.76980478 15.1417858,5.29166806 14.7882772,4.91457567 C14.5555955,4.67365692 14.2822784,4.47750169 13.9814279,4.33551317 L13.9814279,4.33551317 C14.0999177,3.77350692 14.0999177,3.19220691 13.9814279,2.63020067 C13.8460808,2.13009851 13.5860257,1.6743399 13.2266334,1.30738817 C12.4249895,0.462700666 10.9674553,0.0323860512 8.89567447,0.0323860512 L3.18005803,0.0323860512 C2.9917076,0.0319634647 2.8085726,0.0955095019 2.65951009,0.213013166 C2.51878208,0.322916976 2.4224655,0.481704078 2.38882516,0.659263166 L0.00471556694,14.5727007 C-0.0145358471,14.7021988 0.0257960439,14.8335223 0.114030635,14.9286382 C0.209701479,15.0255067 0.338455418,15.0807332 0.473208718,15.0827007 L4.00252379,15.0827007 L4.00252379,15.0827007 L3.75786625,16.5064507 C3.7407514,16.6184186 3.77534241,16.73217 3.85156488,16.8145757 C3.93490468,16.9016864 4.0498273,16.9497541 4.16909913,16.9474716 L7.13101694,16.9474716 C7.29451698,16.9485647 7.45378529,16.8943837 7.58389365,16.7933257 C7.70574842,16.6975749 7.78906739,16.5596342 7.81814022,16.4055132 L7.86498954,16.2886382 Z" id="Path" fill="#253B80"></path>
                        <path d="M5.83485255,4.33020067 C5.87456218,4.10697496 6.02403122,3.92031171 6.23046899,3.83613817 C6.32734528,3.793192 6.43197493,3.77147388 6.53759228,3.77238817 L10.9986882,3.77238817 C11.4915058,3.76890139 11.9839007,3.80263935 12.4718389,3.87332567 C12.6019758,3.87332567 12.7269073,3.91582567 12.8466334,3.93707567 L13.200606,4.02207567 L13.3723868,4.06988817 C13.5832655,4.13428579 13.7886862,4.21601139 13.9866334,4.31426317 C14.210469,2.99145067 13.9866334,2.09363817 13.2162224,1.28082567 C12.3677293,0.383013166 10.8321128,0.000513166303 8.87485255,0.000513166303 L3.18005803,0.000513166303 C2.79676536,-0.0133566266 2.45891724,0.25531403 2.3784142,0.638013166 L0.00471556694,14.5727007 C-0.0143927341,14.7120693 0.0290317373,14.8528079 0.122937552,14.9558579 C0.216843366,15.0589078 0.351238638,15.1133042 0.488825156,15.1039507 L4.00252379,15.1039507 L4.88745529,9.91363817 L5.83485255,4.33020067 Z" id="Path" fill="#1C3687"></path>
                        <path d="M13.9866334,4.31426317 L13.9866334,4.31426317 C13.9866334,4.41520067 13.950195,4.51613817 13.9293731,4.62238817 C13.1797841,8.19238817 10.6082772,9.40363817 7.32882516,9.40363817 L5.65786625,9.40363817 C5.27457358,9.38976837 4.93672546,9.65843903 4.85622242,10.0411382 L4.85622242,10.0411382 L4.00252379,15.0667632 L3.76307173,16.4958257 C3.74898855,16.6161305 3.78788704,16.7366171 3.86928457,16.824816 C3.9506821,16.9130148 4.06620289,16.9598502 4.18471557,16.9527007 L7.14663338,16.9527007 C7.48113088,16.9612149 7.77512123,16.7278546 7.8493731,16.3948882 L7.8493731,16.2567632 L8.41156488,12.9736382 L8.44800324,12.7930132 C8.51852677,12.4576417 8.81487914,12.2224065 9.15074296,12.2352007 L9.59320872,12.2352007 C12.4614279,12.2352007 14.710195,11.1727007 15.3660854,8.02770067 C15.6367704,6.72082567 15.4962224,5.63176317 14.7726608,4.86676317 C14.544435,4.63696849 14.2783692,4.44995041 13.9866334,4.31426317 L13.9866334,4.31426317 Z" id="Path" fill="#009EDD"></path>
                        <path d="M13.200606,4.02207567 L12.8466334,3.93707567 C12.7269073,3.93707567 12.6019758,3.88926317 12.4718389,3.87332567 C11.9839007,3.80263935 11.4915058,3.76890139 10.9986882,3.77238817 L6.53759228,3.77238817 C6.43197493,3.77147388 6.32734528,3.793192 6.23046899,3.83613817 C6.02403122,3.92031171 5.87456218,4.10697496 5.83485255,4.33020067 L4.88745529,9.91363817 L4.85622242,10.0783257 C4.93672546,9.69562653 5.27457358,9.42695587 5.65786625,9.44082567 L7.32882516,9.44082567 C10.6082772,9.44082567 13.1797841,8.20301317 13.9293731,4.65957567 C13.9293731,4.55332567 13.9710169,4.45238817 13.9866334,4.35145067 C13.7886862,4.25319889 13.5832655,4.17147329 13.3723868,4.10707567 L13.200606,4.02207567 Z" id="Path" fill="#211D70"></path>
                    </g>
                </g>
            </g>
        </g>
    </g>
</svg>