<svg  xmlns="http://www.w3.org/2000/svg" xmlns:xlink="http://www.w3.org/1999/xlink" shape-rendering="crispEdges" height="128" width="128" viewBox="0 0 29 29"><path fill="#FFFFFF" d="M0,0 h29v29H0z"></path><path fill="#000000" d="M0 0h7v1H0zM9 0h2v1H9zM14 0h1v1H14zM17 0h2v1H17zM22,0 h7v1H22zM0 1h1v1H0zM6 1h1v1H6zM10 1h1v1H10zM16 1h3v1H16zM20 1h1v1H20zM22 1h1v1H22zM28,1 h1v1H28zM0 2h1v1H0zM2 2h3v1H2zM6 2h1v1H6zM10 2h1v1H10zM14 2h2v1H14zM17 2h4v1H17zM22 2h1v1H22zM24 2h3v1H24zM28,2 h1v1H28zM0 3h1v1H0zM2 3h3v1H2zM6 3h1v1H6zM11 3h1v1H11zM13 3h1v1H13zM16 3h3v1H16zM22 3h1v1H22zM24 3h3v1H24zM28,3 h1v1H28zM0 4h1v1H0zM2 4h3v1H2zM6 4h1v1H6zM12 4h1v1H12zM20 4h1v1H20zM22 4h1v1H22zM24 4h3v1H24zM28,4 h1v1H28zM0 5h1v1H0zM6 5h1v1H6zM8 5h2v1H8zM11 5h1v1H11zM15 5h3v1H15zM19 5h1v1H19zM22 5h1v1H22zM28,5 h1v1H28zM0 6h7v1H0zM8 6h1v1H8zM10 6h1v1H10zM12 6h1v1H12zM14 6h1v1H14zM16 6h1v1H16zM18 6h1v1H18zM20 6h1v1H20zM22,6 h7v1H22zM9 7h1v1H9zM13 7h1v1H13zM15 7h3v1H15zM19 7h2v1H19zM0 8h1v1H0zM3 8h1v1H3zM5 8h2v1H5zM8 8h3v1H8zM14 8h1v1H14zM16 8h1v1H16zM19 8h1v1H19zM21 8h1v1H21zM23 8h1v1H23zM0 9h2v1H0zM3 9h3v1H3zM7 9h1v1H7zM11 9h3v1H11zM15 9h2v1H15zM20 9h4v1H20zM25 9h1v1H25zM28,9 h1v1H28zM0 10h1v1H0zM2 10h2v1H2zM5 10h2v1H5zM10 10h1v1H10zM12 10h4v1H12zM19 10h5v1H19zM25 10h3v1H25zM0 11h1v1H0zM2 11h2v1H2zM7 11h1v1H7zM10 11h4v1H10zM16 11h1v1H16zM18 11h1v1H18zM21 11h2v1H21zM24 11h1v1H24zM26 11h2v1H26zM0 12h4v1H0zM6 12h1v1H6zM8 12h1v1H8zM10 12h1v1H10zM12 12h1v1H12zM14 12h5v1H14zM20 12h3v1H20zM25 12h1v1H25zM27,12 h2v1H27zM2 13h2v1H2zM8 13h4v1H8zM13 13h8v1H13zM0 14h3v1H0zM4 14h5v1H4zM10 14h5v1H10zM16 14h2v1H16zM22 14h2v1H22zM25,14 h4v1H25zM0 15h1v1H0zM3 15h1v1H3zM5 15h1v1H5zM8 15h1v1H8zM11 15h2v1H11zM17 15h2v1H17zM20 15h1v1H20zM22 15h1v1H22zM24 15h2v1H24zM27 15h1v1H27zM0 16h3v1H0zM6 16h2v1H6zM9 16h1v1H9zM11 16h1v1H11zM13 16h1v1H13zM17 16h1v1H17zM20 16h2v1H20zM27 16h1v1H27zM2 17h2v1H2zM7 17h1v1H7zM9 17h1v1H9zM11 17h1v1H11zM13 17h2v1H13zM16 17h1v1H16zM18 17h1v1H18zM22 17h2v1H22zM25 17h1v1H25zM28,17 h1v1H28zM0 18h1v1H0zM2 18h1v1H2zM4 18h1v1H4zM6 18h1v1H6zM8 18h1v1H8zM12 18h1v1H12zM14 18h1v1H14zM17 18h2v1H17zM21 18h4v1H21zM27,18 h2v1H27zM2 19h1v1H2zM4 19h2v1H4zM7 19h1v1H7zM9 19h1v1H9zM11 19h1v1H11zM14 19h2v1H14zM17 19h2v1H17zM23 19h2v1H23zM27,19 h2v1H27zM0 20h1v1H0zM2 20h1v1H2zM5 20h2v1H5zM8 20h3v1H8zM18 20h7v1H18zM26 20h1v1H26zM8 21h3v1H8zM14 21h1v1H14zM16 21h5v1H16zM24 21h1v1H24zM26,21 h3v1H26zM0 22h7v1H0zM9 22h1v1H9zM12 22h1v1H12zM16 22h2v1H16zM20 22h1v1H20zM22 22h1v1H22zM24 22h1v1H24zM27 22h1v1H27zM0 23h1v1H0zM6 23h1v1H6zM8 23h2v1H8zM11 23h2v1H11zM14 23h1v1H14zM18 23h1v1H18zM20 23h1v1H20zM24 23h3v1H24zM0 24h1v1H0zM2 24h3v1H2zM6 24h1v1H6zM9 24h3v1H9zM16 24h2v1H16zM20 24h5v1H20zM28,24 h1v1H28zM0 25h1v1H0zM2 25h3v1H2zM6 25h1v1H6zM8 25h1v1H8zM11 25h2v1H11zM17 25h1v1H17zM20 25h1v1H20zM22 25h6v1H22zM0 26h1v1H0zM2 26h3v1H2zM6 26h1v1H6zM10 26h2v1H10zM18 26h3v1H18zM24 26h3v1H24zM28,26 h1v1H28zM0 27h1v1H0zM6 27h1v1H6zM10 27h1v1H10zM12 27h1v1H12zM14 27h1v1H14zM16 27h2v1H16zM19 27h3v1H19zM23 27h1v1H23zM27 27h1v1H27zM0 28h7v1H0zM8 28h1v1H8zM12 28h1v1H12zM14 28h1v1H14zM16 28h1v1H16zM19 28h3v1H19zM23 28h1v1H23zM25 28h1v1H25zM27 28h1v1H27z"></path></svg>